<?xml version="1.0" encoding="UTF-8" standalone="no"?>
<svg
   xmlns:dc="http://purl.org/dc/elements/1.1/"
   xmlns:cc="http://creativecommons.org/ns#"
   xmlns:rdf="http://www.w3.org/1999/02/22-rdf-syntax-ns#"
   xmlns:svg="http://www.w3.org/2000/svg"
   xmlns="http://www.w3.org/2000/svg"
   xmlns:sodipodi="http://sodipodi.sourceforge.net/DTD/sodipodi-0.dtd"
   xmlns:inkscape="http://www.inkscape.org/namespaces/inkscape"
   version="1.0"
   width="1483.000000pt"
   height="1487.000000pt"
   viewBox="0 0 1483.000000 1487.000000"
   preserveAspectRatio="xMidYMid meet"
   id="svg8"
   sodipodi:docname="PSC-2018-copia.svg"
   inkscape:version="0.92.3 (2405546, 2018-03-11)">
  <metadata
     id="metadata14">
    <rdf:RDF>
      <cc:Work
         rdf:about="">
        <dc:format>image/svg+xml</dc:format>
        <dc:type
           rdf:resource="http://purl.org/dc/dcmitype/StillImage" />
      </cc:Work>
    </rdf:RDF>
  </metadata>
  <defs
     id="defs12" />
  <sodipodi:namedview
     pagecolor="#ffffff"
     bordercolor="#666666"
     borderopacity="1"
     objecttolerance="10"
     gridtolerance="10"
     guidetolerance="10"
     inkscape:pageopacity="0"
     inkscape:pageshadow="2"
     inkscape:window-width="1366"
     inkscape:window-height="705"
     id="namedview10"
     showgrid="false"
     inkscape:zoom="0.11903161"
     inkscape:cx="-376.51695"
     inkscape:cy="991.33333"
     inkscape:window-x="-8"
     inkscape:window-y="-8"
     inkscape:window-maximized="1"
     inkscape:current-layer="svg8" />
  <g
     transform="translate(0.000000,1487.000000) scale(0.100000,-0.100000)"
     fill="#000000"
     stroke="none"
     id="g6"
     style="fill:#e10819;fill-opacity:1">
    <path
       d="M468 14749 c-68 -16 -161 -70 -219 -128 -63 -63 -101 -131 -124 -218 -13 -50 -15 -875 -15 -6969 l0 -6912 21 -68 c50 -166 182 -289 351 -329 55 -13 909 -15 6953 -15 6110 0 6897 2 6954 15 174 41 310 176 356 352 13 50 15 873 15 6955 0 4997 -3 6912 -11 6950 -36 174 -172 319 -344 364 -42 11 -1223 14 -6975 13 -3967 -1 -6941 -5 -6962 -10z m7097 -7734 c346 -46 641 -154 934 -342 113 -73 261 -183 261 -194 0 -10 -358 -449 -366 -449 -3 0 -56 38 -117 84 -331 248 -612 358 -989 387 -215 16 -451 -8 -613 -63 -336 -113 -521 -348 -531 -673 -6 -236 50 -389 199 -536 155 -154 452 -313 872 -468 447 -165 682 -264 870 -368 477 -264 695 -535 771 -958 27 -154 25 -456 -5 -594 -67 -315 -219 -573 -451 -766 -230 -191 -518 -315 -866 -370 -135 -22 -472 -31 -615 -16 -323 33 -596 113 -889 262 -213 108 -399 236 -566 392 l-58 54 159 178 c88 98 176 197 196 219 l37 41 58 -56 c84 -79 245 -205 342 -267 336 -215 688 -315 1056 -299 384 17 671 134 853 349 118 138 172 290 180 499 7 174 -10 267 -74 398 -39 81 -59 108 -142 192 -193 194 -469 341 -1011 539 -1050 383 -1422 708 -1491 1303 -15 126 -6 407 15 502 85 380 303 659 655 839 219 112 454 173 771 200 94 8 440 -4 555 -19z m4215 15 c535 -47 931 -225 1265 -571 141 -146 265 -316 364 -501 l42 -76 -53 -24 c-29 -14 -245 -113 -479 -221 -234 -109 -430 -197 -435 -197 -5 0 -33 39 -63 86 -62 99 -201 250 -281 304 -189 128 -381 177 -655 167 -160 -6 -261 -25 -384 -73 -307 -122 -557 -407 -685 -785 -168 -496 -160 -1155 20 -1622 176 -459 498 -745 912 -813 116 -19 338 -14 447 10 276 61 473 212 683 524 42 62 81 111 87 108 11 -4 858 -505 863 -511 8 -8 -12 -48 -87 -173 -348 -579 -797 -885 -1444 -983 -172 -27 -542 -32 -697 -10 -325 45 -591 134 -851 287 -330 193 -616 510 -810 895 -198 394 -301 845 -316 1384 -31 1144 412 2063 1217 2524 378 217 854 313 1340 271z m-7923 -115 c633 -83 1063 -406 1239 -932 60 -179 75 -272 81 -518 6 -244 -6 -370 -53 -544 -47 -173 -98 -285 -195 -432 -194 -290 -500 -495 -884 -594 -261 -67 -270 -68 -1112 -72 l-763 -4 0 -1020 0 -1019 -270 0 -270 0 0 2575 0 2575 1054 0 c890 0 1073 -2 1173 -15z"
       id="path2"
       style="fill:#e10819;fill-opacity:1" />
    <path
       d="M2170 5380 l0 -1071 773 4 c647 3 784 7 847 20 286 59 434 130 585 282 186 187 267 420 266 770 0 289 -67 515 -206 695 -111 144 -286 257 -478 310 -194 53 -179 52 -1009 57 l-778 4 0 -1071z"
       id="path4"
       style="fill:#e10819;fill-opacity:1" />
  </g>
</svg>
